# xmcd
#
# Track frame offsets:
#	150
#	14325
#	30975
#	44775
#	62250
#	80850
#	97950
#	112050
#	128700
#	146175
#	162300
#	176475
#	193125
#	206925
#	224400
#	243000
#	260100
#	274200
#	290850
#	308325
#
# Disc length: 4326 seconds
#
# Revision: 1
# Processed by: cddbd v1.4PL0 Copyright (c) Steve Scherf et al.
# Submitted via: audiograbber 1.82.02
#
DISCID=3510e414
DTITLE=Various Artist - Country Hits Monthly - April 1997
DYEAR=1900
DGENRE=
TTITLE0=1 - 1
TTITLE1=2 - 2
TTITLE2=3 - 3
TTITLE3=4 - 4
TTITLE4=5 - 5
TTITLE5=6 - 6
TTITLE6=7 - 7
TTITLE7=8 - 8
TTITLE8=9 - 9
TTITLE9=10 - 10
TTITLE10=Kevin Sharp - She's Sure Taking It Well
TTITLE11=Trisha Yearwood - I Need You
TTITLE12=Lonestar - Heartbroke Every Day
TTITLE13=Mila Mason - Dark Horse
TTITLE14=John Michael Montgomery - I Miss You A Little
TTITLE15=Collin Raye - On The Verge
TTITLE16=Tracy Lawrence - Better Man, Better Off
TTITLE17=Kathy Mattea - 455 Rocket
TTITLE18=David Kersh - Another You
TTITLE19=Buffalo Club - If She Don't Love You
EXTD=
EXTT0=
EXTT1=
EXTT2=
EXTT3=
EXTT4=
EXTT5=
EXTT6=
EXTT7=
EXTT8=
EXTT9=
EXTT10=
EXTT11=
EXTT12=
EXTT13=
EXTT14=
EXTT15=
EXTT16=
EXTT17=
EXTT18=
EXTT19=
PLAYORDER=
